<svg width="184" height="191" viewBox="0 0 184 191" fill="none" xmlns="http://www.w3.org/2000/svg">
<rect x="78" y="11" width="4" height="71" fill="#515151"/>
<rect x="82" y="82" width="4" height="43" transform="rotate(90 82 82)" fill="#515151"/>
<rect x="82" y="100" width="4" height="43" rx="2" transform="rotate(90 82 100)" fill="#F9B8BC"/>
<rect x="106" y="100" width="4" height="18" rx="2" transform="rotate(90 106 100)" fill="#7079BC"/>
<path d="M148 100C149.105 100 150 100.895 150 102C150 103.105 149.105 104 148 104H114C112.895 104 112 103.105 112 102C112 100.895 112.895 100 114 100H148Z" fill="#59AF7E"/>
<rect x="108.953" y="1.54993" width="4" height="71" transform="rotate(-22.798 108.953 1.54993)" fill="#515151"/>
<rect x="140.152" y="65.4532" width="4" height="43" transform="rotate(67.202 140.152 65.4532)" fill="#515151"/>
<path d="M21.5529 142.2C20.9529 142.2 20.2863 142.05 19.5529 141.75C18.8529 141.45 18.3196 141 17.9529 140.4C17.6196 139.867 17.4696 139.183 17.5029 138.35C17.5696 137.483 17.8529 136.833 18.3529 136.4C18.7529 136.067 19.2029 135.833 19.7029 135.7C20.2363 135.533 20.7863 135.433 21.3529 135.4C21.9196 135.333 22.4696 135.3 23.0029 135.3C23.5696 135.3 24.1029 135.3 24.6029 135.3H26.2529C26.5196 135.267 26.7863 135.267 27.0529 135.3C27.3529 135.3 27.6529 135.3 27.9529 135.3C28.2196 135.3 28.8363 135.3 29.8029 135.3C30.7696 135.3 31.8196 135.3 32.9529 135.3C34.0863 135.3 35.1363 135.3 36.1029 135.3C37.0696 135.3 37.6863 135.3 37.9529 135.3C38.4529 135.333 38.9529 135.35 39.4529 135.35C39.9863 135.317 40.5196 135.3 41.0529 135.3C41.6196 135.3 42.2196 135.317 42.8529 135.35C43.4863 135.383 44.0863 135.483 44.6529 135.65C45.2196 135.817 45.7363 136.083 46.2029 136.45C46.6696 136.783 47.0029 137.283 47.2029 137.95C47.4696 138.85 47.6196 139.767 47.6529 140.7C47.7196 141.6 47.7529 142.583 47.7529 143.65C47.7196 144.417 47.7029 145.05 47.7029 145.55C47.7363 146.017 47.7529 146.633 47.7529 147.4C47.7529 147.767 47.7529 148.133 47.7529 148.5C47.7529 148.867 47.7696 149.233 47.8029 149.6C47.8029 150.033 47.8029 150.517 47.8029 151.05C47.8029 151.583 47.8029 152.133 47.8029 152.7C47.8029 153.233 47.7863 153.767 47.7529 154.3C47.7529 154.833 47.7363 155.317 47.7029 155.75C47.5696 156.25 47.4696 156.75 47.4029 157.25C47.3696 157.717 47.2196 158.2 46.9529 158.7C46.7863 159 46.5196 159.3 46.1529 159.6C45.9863 159.767 45.7363 159.9 45.4029 160C45.1029 160.067 44.8196 160.1 44.5529 160.1C44.0863 160.1 43.6863 160.05 43.3529 159.95C42.4529 159.65 41.8363 159.233 41.5029 158.7C41.2029 158.167 41.0196 157.517 40.9529 156.75C40.9196 156.417 40.8863 155.95 40.8529 155.35C40.8196 154.75 40.7863 154.133 40.7529 153.5C40.7529 152.867 40.7529 152.283 40.7529 151.75C40.7529 151.217 40.7529 150.833 40.7529 150.6C40.6863 149.5 40.6529 148.5 40.6529 147.6C40.6529 146.667 40.6196 145.667 40.5529 144.6C40.5196 144.3 40.5196 144.017 40.5529 143.75C40.5863 143.45 40.5363 143.15 40.4029 142.85C40.3029 142.617 40.1529 142.467 39.9529 142.4C39.7863 142.3 39.5863 142.25 39.3529 142.25C39.1196 142.217 38.8863 142.217 38.6529 142.25C38.4196 142.25 38.2029 142.233 38.0029 142.2C37.6363 142.167 37.3529 142.167 37.1529 142.2C36.9863 142.2 36.7196 142.2 36.3529 142.2H25.3529C25.1529 142.2 24.9196 142.2 24.6529 142.2C24.3863 142.167 24.1196 142.167 23.8529 142.2C23.4863 142.267 23.1029 142.283 22.7029 142.25C22.3029 142.217 21.9196 142.2 21.5529 142.2ZM19.5029 169.65C18.9696 169.617 18.4363 169.533 17.9029 169.4C17.4029 169.3 16.9529 169.133 16.5529 168.9C16.1529 168.7 15.8196 168.4 15.5529 168C15.3196 167.6 15.2029 167.067 15.2029 166.4C15.2029 165.733 15.4196 165.15 15.8529 164.65C16.1196 164.383 16.4529 164.183 16.8529 164.05C17.2529 163.917 17.6363 163.817 18.0029 163.75C18.3696 163.683 18.6863 163.65 18.9529 163.65C19.2529 163.65 19.4196 163.65 19.4529 163.65L46.8029 163.7C47.6696 163.7 48.4529 163.717 49.1529 163.75C49.8863 163.75 50.5363 163.983 51.1029 164.45C51.8029 165.083 52.1529 165.8 52.1529 166.6C52.1529 167.1 52.0029 167.55 51.7029 167.95C51.4029 168.383 51.0029 168.683 50.5029 168.85C49.8363 169.117 49.1363 169.3 48.4029 169.4C47.7029 169.5 47.0029 169.567 46.3029 169.6C43.8696 169.7 41.4696 169.733 39.1029 169.7C36.7363 169.667 34.4363 169.65 32.2029 169.65C29.8029 169.65 27.4529 169.667 25.1529 169.7C22.8863 169.733 21.0029 169.717 19.5029 169.65ZM74.9678 154.85C74.7678 154.983 74.5511 155.067 74.3178 155.1C74.1178 155.133 73.9178 155.183 73.7178 155.25H72.4678H61.6178H59.4178H57.1678C56.4011 155.117 55.8011 154.85 55.3678 154.45C54.8344 153.883 54.5678 153.183 54.5678 152.35C54.5678 152.183 54.5511 151.983 54.5178 151.75C54.5178 151.483 54.4844 151.217 54.4178 150.95V149.15V147.5V146.25V145.8V144.55C54.4178 144.183 54.5511 143.767 54.8178 143.3C55.3178 142.8 55.9678 142.483 56.7678 142.35C57.2011 142.283 57.6011 142.25 57.9678 142.25C58.3678 142.217 58.7511 142.2 59.1178 142.2H70.5178V139.15H68.9678H57.6178C57.3844 139.15 57.1178 139.15 56.8178 139.15C56.5178 139.117 56.2678 139.017 56.0678 138.85C55.5011 138.717 55.1011 138.467 54.8678 138.1C54.6344 137.7 54.4844 137.267 54.4178 136.8C54.3511 136.533 54.3344 136.283 54.3678 136.05C54.4344 135.817 54.5011 135.6 54.5678 135.4C54.7011 134.833 54.9844 134.417 55.4178 134.15C55.8511 133.85 56.3511 133.667 56.9178 133.6C57.3178 133.533 57.7011 133.5 58.0678 133.5C58.4344 133.467 58.8344 133.45 59.2678 133.45H60.1178H60.6678H70.8178C71.7178 133.45 72.4844 133.55 73.1178 133.75C73.7844 133.917 74.3511 134.183 74.8178 134.55C75.8511 135.283 76.3678 136.267 76.3678 137.5V142.75C76.3678 143.017 76.3344 143.317 76.2678 143.65C76.2011 143.983 76.1344 144.333 76.0678 144.7C75.8344 145.467 75.4678 145.983 74.9678 146.25C74.5344 146.517 74.1178 146.65 73.7178 146.65C73.5178 146.717 73.2678 146.767 72.9678 146.8C72.6678 146.8 72.4011 146.8 72.1678 146.8H60.6678V150H72.0678H73.0178H73.9678C74.6678 150.067 75.2344 150.333 75.6678 150.8C76.1344 151.233 76.3678 151.833 76.3678 152.6C76.3678 153.1 76.2344 153.567 75.9678 154C75.7344 154.4 75.4011 154.683 74.9678 154.85ZM88.0178 166.95C88.3511 167.017 88.6678 167.15 88.9678 167.35C89.2678 167.517 89.5511 167.75 89.8178 168.05C89.9844 168.217 90.1178 168.483 90.2178 168.85C90.3844 170.183 90.1678 171.167 89.5678 171.8C89.0678 172.267 88.6511 172.533 88.3178 172.6C88.0178 172.667 87.8178 172.7 87.7178 172.7C87.6178 172.733 87.5344 172.75 87.4678 172.75H62.4678C61.7678 172.75 61.1511 172.7 60.6178 172.6C60.0844 172.533 59.6344 172.4 59.2678 172.2C58.8344 172 58.5344 171.75 58.3678 171.45C58.2344 171.183 58.1678 170.833 58.1678 170.4C58.1344 168.7 58.1011 167.183 58.0678 165.85C58.0678 165.283 58.0511 164.733 58.0178 164.2C58.0178 163.633 58.0178 163.133 58.0178 162.7C58.0178 162.233 58.0178 161.867 58.0178 161.6C58.0178 161.3 58.0178 161.133 58.0178 161.1C58.0178 160.933 58.0344 160.8 58.0678 160.7C58.1344 160.567 58.1678 160.467 58.1678 160.4C58.1678 160.033 58.2511 159.7 58.4178 159.4C58.6178 159.067 58.8511 158.8 59.1178 158.6C59.3844 158.4 59.6844 158.267 60.0178 158.2C60.3511 158.1 60.7011 158.05 61.0678 158.05H61.7678C61.9344 158.05 62.0511 158.083 62.1178 158.15C62.1844 158.183 62.2511 158.2 62.3178 158.2C62.5844 158.267 62.8011 158.367 62.9678 158.5C63.1344 158.6 63.2844 158.717 63.4178 158.85C63.6844 159.117 63.8678 159.5 63.9678 160C64.0344 160.2 64.1011 160.4 64.1678 160.6C64.2344 160.8 64.2678 161.017 64.2678 161.25C64.2678 161.45 64.2844 161.65 64.3178 161.85C64.3844 162.05 64.4178 162.267 64.4178 162.5V164.55V166.8C64.4511 166.867 64.8511 166.917 65.6178 166.95C66.4178 166.95 67.2844 166.95 68.2178 166.95H71.9178H88.0178ZM89.8178 154.55C89.8178 154.917 89.8011 155.267 89.7678 155.6C89.7678 155.933 89.7011 156.283 89.5678 156.65C89.4011 157.217 89.1511 157.65 88.8178 157.95C88.4844 158.217 88.0344 158.433 87.4678 158.6C86.9011 158.733 86.3844 158.733 85.9178 158.6C85.4844 158.467 85.1011 158.25 84.7678 157.95C84.4678 157.617 84.2011 157.233 83.9678 156.8C83.7678 156.367 83.6344 155.9 83.5678 155.4C83.5678 155.133 83.5511 154.867 83.5178 154.6C83.4844 154.3 83.5011 154.017 83.5678 153.75V151.95V138.75C83.5678 138.317 83.5678 137.833 83.5678 137.3C83.5678 136.733 83.6178 136.183 83.7178 135.65C83.8178 135.117 83.9844 134.633 84.2178 134.2C84.4844 133.767 84.8678 133.433 85.3678 133.2C85.7344 133.033 86.0844 132.95 86.4178 132.95C86.7511 132.95 87.0511 132.983 87.3178 133.05C88.1511 133.117 88.7511 133.433 89.1178 134C89.5178 134.533 89.7511 135.133 89.8178 135.8V137.5V154.55ZM121.279 133.5C121.846 133.5 122.412 133.517 122.979 133.55C123.546 133.583 124.096 133.683 124.629 133.85C125.429 134.083 125.946 134.6 126.179 135.4C126.412 136.167 126.529 136.917 126.529 137.65V142.2C126.529 142.467 126.496 142.817 126.429 143.25C126.396 143.683 126.329 144.133 126.229 144.6C126.129 145.067 125.979 145.517 125.779 145.95C125.612 146.35 125.396 146.633 125.129 146.8C124.662 147.067 124.212 147.233 123.779 147.3C123.346 147.333 122.929 147.333 122.529 147.3H101.779V149.4H122.579C122.879 149.4 123.162 149.4 123.429 149.4C123.729 149.4 124.012 149.417 124.279 149.45C124.779 149.483 125.229 149.633 125.629 149.9C126.062 150.133 126.362 150.533 126.529 151.1C126.696 151.767 126.662 152.4 126.429 153C126.229 153.6 125.829 154.033 125.229 154.3C124.829 154.467 124.412 154.583 123.979 154.65C123.579 154.683 123.196 154.7 122.829 154.7H102.579C101.912 154.7 101.212 154.7 100.479 154.7C99.7791 154.7 99.0624 154.683 98.3291 154.65C97.6291 154.583 97.0458 154.233 96.5791 153.6C96.1124 152.967 95.8458 152.217 95.7791 151.35C95.7458 151.05 95.7124 150.667 95.6791 150.2C95.6791 149.733 95.6624 149.25 95.6291 148.75C95.6291 148.25 95.6291 147.783 95.6291 147.35C95.6291 146.917 95.6291 146.567 95.6291 146.3V145.1C95.5958 144.7 95.5958 144.283 95.6291 143.85C95.6958 143.383 95.8791 142.967 96.1791 142.6C96.6124 142.033 97.2124 141.683 97.9791 141.55C98.7791 141.383 99.5458 141.3 100.279 141.3C100.446 141.3 100.712 141.317 101.079 141.35C101.479 141.383 101.796 141.383 102.029 141.35H120.779V139.2H101.529C101.362 139.2 101.179 139.217 100.979 139.25C100.779 139.25 100.596 139.25 100.429 139.25C100.229 139.25 100.012 139.267 99.7791 139.3C99.5791 139.3 99.3791 139.3 99.1791 139.3C98.4791 139.3 97.9124 139.233 97.4791 139.1C96.9124 138.967 96.4458 138.583 96.0791 137.95C95.6458 137.183 95.5291 136.367 95.7291 135.5C95.8958 134.9 96.2791 134.45 96.8791 134.15C97.4791 133.85 97.9624 133.667 98.3291 133.6C98.5958 133.533 98.8458 133.5 99.0791 133.5C99.3458 133.5 99.6291 133.5 99.9291 133.5H101.679C102.212 133.5 102.862 133.517 103.629 133.55C104.429 133.55 105.262 133.55 106.129 133.55C106.996 133.55 107.862 133.55 108.729 133.55C109.629 133.517 110.446 133.5 111.179 133.5H121.279ZM124.629 158.3C125.162 158.267 125.712 158.283 126.279 158.35C126.879 158.383 127.429 158.5 127.929 158.7C128.429 158.9 128.829 159.2 129.129 159.6C129.462 160 129.629 160.55 129.629 161.25C129.629 162.083 129.346 162.717 128.779 163.15C128.212 163.55 127.529 163.85 126.729 164.05C125.962 164.217 125.146 164.317 124.279 164.35C123.446 164.35 122.762 164.35 122.229 164.35C121.929 164.35 121.612 164.367 121.279 164.4C120.979 164.4 120.662 164.4 120.329 164.4C119.362 164.4 118.396 164.4 117.429 164.4C116.462 164.4 115.496 164.383 114.529 164.35C114.562 165.383 114.596 166.283 114.629 167.05C114.662 167.85 114.612 168.683 114.479 169.55C114.379 170.183 114.212 170.783 113.979 171.35C113.746 171.95 113.346 172.433 112.779 172.8C112.279 173.133 111.696 173.3 111.029 173.3C110.362 173.3 109.762 173.15 109.229 172.85C108.796 172.583 108.462 172.2 108.229 171.7C108.029 171.2 107.879 170.717 107.779 170.25C107.712 169.883 107.696 169.483 107.729 169.05C107.762 168.617 107.762 168.217 107.729 167.85V164.35C106.662 164.35 105.696 164.35 104.829 164.35C103.962 164.35 103.112 164.367 102.279 164.4C101.479 164.4 100.662 164.4 99.8291 164.4C98.9958 164.4 98.0791 164.4 97.0791 164.4C96.3124 164.4 95.5791 164.3 94.8791 164.1C94.1791 163.9 93.6291 163.467 93.2291 162.8C92.8624 162.233 92.6791 161.633 92.6791 161C92.7124 160.367 92.9624 159.8 93.4291 159.3C93.6624 159.033 93.9791 158.833 94.3791 158.7C94.7791 158.567 95.1624 158.483 95.5291 158.45C95.9291 158.383 96.2624 158.35 96.5291 158.35C96.8291 158.35 96.9958 158.35 97.0291 158.35L124.629 158.3ZM165.044 153.55C165.477 153.85 165.777 154.233 165.944 154.7C166.144 155.133 166.227 155.583 166.194 156.05C166.161 156.517 166.011 156.967 165.744 157.4C165.511 157.8 165.161 158.117 164.694 158.35C163.961 158.75 163.194 159.017 162.394 159.15C161.594 159.283 160.811 159.35 160.044 159.35H157.994C157.694 159.35 157.144 159.35 156.344 159.35C155.544 159.35 154.627 159.35 153.594 159.35C152.561 159.35 151.461 159.35 150.294 159.35C149.161 159.35 148.077 159.35 147.044 159.35C146.011 159.35 145.094 159.35 144.294 159.35C143.494 159.35 142.944 159.35 142.644 159.35H141.744C141.211 159.35 140.627 159.333 139.994 159.3C139.361 159.267 138.744 159.183 138.144 159.05C137.544 158.917 136.977 158.733 136.444 158.5C135.911 158.233 135.461 157.883 135.094 157.45C134.761 157.05 134.511 156.567 134.344 156C134.177 155.4 134.061 154.817 133.994 154.25C133.961 153.65 133.944 153.15 133.944 152.75C133.944 152.317 133.944 152.067 133.944 152V138.7C133.944 138.667 133.944 138.517 133.944 138.25C133.944 137.983 133.961 137.7 133.994 137.4C134.027 137.067 134.077 136.75 134.144 136.45C134.211 136.117 134.294 135.85 134.394 135.65C134.694 135.183 134.994 134.833 135.294 134.6C135.594 134.367 135.994 134.217 136.494 134.15C136.627 134.117 136.777 134.1 136.944 134.1C137.144 134.1 137.344 134.083 137.544 134.05C137.744 134.05 137.977 134.033 138.244 134H159.244H159.844C160.011 134 160.177 134.017 160.344 134.05C160.544 134.05 160.727 134.033 160.894 134H160.994C161.294 134 161.594 134.017 161.894 134.05C162.227 134.083 162.544 134.15 162.844 134.25C163.144 134.317 163.444 134.4 163.744 134.5C164.044 134.6 164.311 134.783 164.544 135.05C164.711 135.283 164.861 135.55 164.994 135.85C165.127 136.117 165.227 136.4 165.294 136.7C165.394 137.133 165.411 137.633 165.344 138.2C165.244 138.9 164.877 139.517 164.244 140.05C163.611 140.55 162.927 140.8 162.194 140.8H140.794V143.35V143.8C141.061 143.8 141.461 143.817 141.994 143.85C142.527 143.85 143.127 143.85 143.794 143.85C144.494 143.85 145.227 143.85 145.994 143.85C146.794 143.85 147.594 143.85 148.394 143.85C150.227 143.85 152.227 143.833 154.394 143.8H159.244C159.411 143.8 159.577 143.817 159.744 143.85C159.911 143.85 160.077 143.833 160.244 143.8H161.594C161.961 143.8 162.327 143.833 162.694 143.9C163.094 143.967 163.461 144.1 163.794 144.3C164.294 144.6 164.611 145.05 164.744 145.65C164.877 146.217 164.911 146.767 164.844 147.3C164.844 147.967 164.561 148.517 163.994 148.95C163.461 149.35 162.811 149.55 162.044 149.55H156.044C154.011 149.583 152.127 149.6 150.394 149.6H143.444C143.011 149.6 142.577 149.6 142.144 149.6C141.711 149.6 141.261 149.583 140.794 149.55C140.827 150.217 140.844 150.617 140.844 150.75C140.844 150.883 140.844 150.917 140.844 150.85C140.844 150.75 140.827 150.617 140.794 150.45C140.794 150.25 140.794 150.15 140.794 150.15V152.2C140.794 152.433 140.794 152.583 140.794 152.65C140.827 152.717 140.861 152.75 140.894 152.75C140.927 152.717 140.961 152.683 140.994 152.65C141.027 152.617 141.061 152.6 141.094 152.6C141.327 152.733 141.694 152.833 142.194 152.9C142.727 152.967 143.327 153 143.994 153H144.194C144.361 153 144.777 153 145.444 153C146.144 152.967 146.944 152.95 147.844 152.95C148.744 152.95 149.711 152.95 150.744 152.95C151.777 152.95 152.744 152.95 153.644 152.95C154.544 152.95 155.327 152.967 155.994 153C156.661 153 157.094 153 157.294 153C157.961 153 158.494 153 158.894 153C159.294 153 159.627 153 159.894 153C160.161 153 160.394 153 160.594 153C160.794 152.967 161.027 152.95 161.294 152.95C161.827 152.95 162.361 152.967 162.894 153C163.427 153.033 163.961 153.133 164.494 153.3C164.594 153.333 164.677 153.367 164.744 153.4C164.844 153.433 164.944 153.483 165.044 153.55ZM135.644 170C135.111 169.967 134.577 169.883 134.044 169.75C133.544 169.65 133.094 169.483 132.694 169.25C132.294 169.05 131.961 168.75 131.694 168.35C131.461 167.95 131.344 167.417 131.344 166.75C131.344 166.083 131.561 165.5 131.994 165C132.261 164.733 132.594 164.533 132.994 164.4C133.394 164.267 133.777 164.167 134.144 164.1C134.511 164.033 134.827 164 135.094 164C135.394 164 135.561 164 135.594 164L163.444 164.05C164.311 164.05 165.094 164.067 165.794 164.1C166.527 164.1 167.177 164.333 167.744 164.8C168.444 165.433 168.794 166.15 168.794 166.95C168.794 167.45 168.644 167.9 168.344 168.3C168.044 168.733 167.644 169.033 167.144 169.2C166.477 169.467 165.777 169.65 165.044 169.75C164.344 169.85 163.644 169.917 162.944 169.95C160.511 170.05 158.111 170.083 155.744 170.05C153.377 170.017 151.077 170 148.844 170C147.644 170 146.411 170 145.144 170C143.911 170.033 142.711 170.05 141.544 170.05C140.411 170.05 139.327 170.05 138.294 170.05C137.261 170.05 136.377 170.033 135.644 170Z" fill="#515151"/>
</svg>
